# xmcd
#
# Track frame offsets:
#	150
#	15767
#	30162
#	42605
#	51817
#	66020
#	79200
#	89480
#	108392
#	121727
#	134207
#
# Disc length: 1891 seconds
#
# Revision: 1
# Processed by: cddbd v1.4PL0 Copyright (c) Steve Scherf et al.
# Submitted via: audiograbber 1.81.03
#
DISCID=8a07610b
DTITLE=Various Artist - Country Heartbreakers
DYEAR=1995
DGENRE=Country
TTITLE0=George Jones - He Stopped Loving Her Today
TTITLE1=Earl Thomas Conley - Love Don't Care (Whose Heart It Breaks)
TTITLE2=Patty Loveless - Lonely Days, Lonely Nights
TTITLE3=Johnny Rodriguez - We're Over
TTITLE4=Gary Morris - I'm So Lonesome I Could Cry
TTITLE5=Lorrie Morgan - Love Is Fair
TTITLE6=Freddy Fender - Wasted Days And Wasted Nights
TTITLE7=T. G. Sheppard - Without You
TTITLE8=Lynn Anderson - Cry
TTITLE9=David Frizzell - Lost My Baby Blues
TTITLE10=Johnny Tillotson - Heartaches By The Number
EXTD=
EXTT0=
EXTT1=
EXTT2=
EXTT3=
EXTT4=
EXTT5=
EXTT6=
EXTT7=
EXTT8=
EXTT9=
EXTT10=
PLAYORDER=
